/vscmnt/brussel_pixiu_data/_data_brussel/112/vsc11236/PredSimResults/SUBJ06opt3D/expIG/worker_15.mot
version=1
nRows=11
nColumns=50
inDegrees=yes
endheader
                time	         pelvis_tilt	         pelvis_list	     pelvis_rotation	           pelvis_tx	           pelvis_ty	           pelvis_tz	       hip_flexion_r	     hip_adduction_r	      hip_rotation_r	        knee_angle_r	       ankle_angle_r	         mtp_angle_r	       hip_flexion_l	     hip_adduction_l	      hip_rotation_l	        knee_angle_l	       ankle_angle_l	         mtp_angle_l	    lumbar_extension	      lumbar_bending	     lumbar_rotation	 ercspn_r/activation	 intobl_r/activation	 extobl_r/activation	    abd_r/activation	    add_r/activation	hamstrings_r/activation	bifemsh_r/activation	glut_max_r/activation	iliopsoas_r/activation	rect_fem_r/activation	  vasti_r/activation	gastroc_r/activation	 soleus_r/activation	tib_ant_r/activation	 ercspn_l/activation	 intobl_l/activation	 extobl_l/activation	    abd_l/activation	    add_l/activation	hamstrings_l/activation	bifemsh_l/activation	glut_max_l/activation	iliopsoas_l/activation	rect_fem_l/activation	  vasti_l/activation	gastroc_l/activation	 soleus_l/activation	tib_ant_l/activation	
          1.15665592	        -10.59726312	          2.06091449	         -4.94423129	          2.31331184	          0.93709817	          0.00065947	        -12.59274087	         -1.28554754	         -3.71385255	        -15.51313021	        -19.38428535	         42.74139545	         36.76269680	          1.82135785	         -2.34528020	        -24.52910069	          4.86528757	          0.41966479	         -6.44710474	         -3.49692847	         14.21037797	          0.20265213	          0.01140549	          0.00999999	          0.00999999	          0.37254628	          0.04764758	          0.23429050	          0.02510222	          0.93832153	          0.03573965	          0.00999999	          0.18459595	          0.10370876	          0.00999999	          0.27345970	          0.02352363	          0.00999999	          0.06045856	          0.33263009	          0.45772259	          0.44015948	          0.00999999	          0.20723160	          0.01128516	          0.00999999	          0.01128516	          0.00999999	          0.81406948	
          1.16436696	        -10.51030573	          2.01104663	         -4.80275089	          2.33087851	          0.93289585	         -0.00030318	        -12.18337306	         -1.43948699	         -4.11971337	        -18.19657927	        -19.90055523	         42.27095701	         36.65073833	          2.15895412	         -1.96497392	        -26.04100079	          4.66704345	          0.41475157	         -6.23553614	         -3.52067714	         14.28049543	          0.21499475	          0.01010662	          0.00999999	          0.01094666	          0.33640170	          0.04222140	          0.20760913	          0.02224354	          0.88277295	          0.03166956	          0.00999999	          0.16357387	          0.09189824	          0.00999999	          0.24231768	          0.02084473	          0.01000000	          0.05357345	          0.47162854	          0.40559642	          0.39003343	          0.07273403	          0.18363174	          0.00999999	          0.00999999	          0.00999999	          0.00999999	          0.72136197	
          1.17207800	        -10.41412884	          1.99254943	         -4.64090816	          2.34850574	          0.92839729	         -0.00125189	        -11.56990228	         -1.65363509	         -4.54576529	        -21.24037162	        -20.47209968	         41.52420077	         36.58500240	          2.47660154	         -1.57077906	        -28.17676316	          5.26140235	          0.48192341	         -6.01423181	         -3.58513276	         14.28141588	          0.24022896	          0.01128516	          0.00999999	          0.01128516	          0.35434037	          0.03741316	          0.18396628	          0.01971041	          0.78224138	          0.02806298	          0.00999999	          0.14494582	          0.08143273	          0.00999999	          0.21472217	          0.01847090	          0.00999999	          0.19789088	          0.45469028	          0.35940646	          0.34561581	          0.06445096	          0.16271947	          0.00999999	          0.19008737	          0.01621931	          0.14338894	          0.63921214	
          1.17978904	        -10.31283175	          2.00331434	         -4.45203783	          2.36608012	          0.92385244	         -0.00217315	        -10.75035405	         -1.92571875	         -4.99299055	        -24.57789591	        -21.21626131	         40.41745163	         36.46520757	          2.76078123	         -1.35800981	        -30.46298164	          7.19353731	          1.11691570	         -5.79837311	         -3.68895590	         14.20963668	          0.29266046	          0.00999999	          0.00999999	          0.00999999	          0.31398753	          0.03315249	          0.16456312	          0.01746576	          0.69315851	          0.02486713	          0.00999999	          0.12843916	          0.07215904	          0.01836243	          0.19026927	          0.01636740	          0.00999999	          0.31851334	          0.40290943	          0.31847669	          0.30625654	          0.21801248	          0.14418872	          0.00999999	          0.34490054	          0.01437223	          0.14213041	          0.56641765	
          1.18750008	        -10.21210425	          2.05523074	         -4.23436309	          2.38343745	          0.91958316	         -0.00309793	         -9.71221540	         -2.27318011	         -5.45459192	        -28.15801415	        -22.13436900	         38.72483443	         36.25089424	          3.07706414	         -1.21889952	        -32.63980170	          9.55041909	          2.08894912	         -5.60621275	         -3.84074320	         14.06568505	          0.30684578	          0.02326212	          0.00999999	          0.00999999	          0.27823014	          0.02937703	          0.14582241	          0.01547673	          0.61422053	          0.02203522	          0.00999999	          0.11381231	          0.06394145	          0.11505162	          0.16860111	          0.01450346	          0.00999999	          0.40223580	          0.35702547	          0.28220807	          0.27137956	          0.24792878	          0.12776829	          0.00999999	          0.45586859	          0.01273550	          0.20620570	          0.50191312	
          1.19521112	        -10.11606325	          2.13947354	         -3.99248789	          2.40045148	          0.91579535	         -0.00401798	         -8.46458638	         -2.68295641	         -5.89692633	        -31.94316318	        -23.03115875	         36.13755457	         35.93335057	          3.43137439	         -1.07986804	        -34.54386705	         11.64343596	          3.23519164	         -5.45282028	         -4.02841986	         13.85615073	          0.33235738	          0.07114300	          0.00999999	          0.00999999	          0.24654485	          0.02603153	          0.14451095	          0.01371422	          0.54427213	          0.01952581	          0.00999999	          0.10085118	          0.05665970	          0.23501547	          0.14940092	          0.01285178	          0.00999999	          0.45053902	          0.31636685	          0.25006977	          0.24047443	          0.21969426	          0.11321783	          0.00999999	          0.60829146	          0.01128516	          0.26414434	          0.44475447	
          1.20292216	        -10.02761956	          2.24138989	         -3.72796066	          2.41707390	          0.91260752	         -0.00491230	         -7.05074098	         -3.11925618	         -6.28581070	        -35.82162167	        -23.71416553	         32.84481202	         35.48255035	          3.80577366	         -0.93416382	        -36.10844544	         13.44699751	          4.47883450	         -5.34436234	         -4.23331891	         13.58155549	          0.34852755	          0.11099407	          0.00999999	          0.00999999	          0.21846794	          0.02306702	          0.16847210	          0.01215242	          0.48228957	          0.01730218	          0.00999999	          0.08936609	          0.05020721	          0.22401476	          0.13840918	          0.01138820	          0.00999999	          0.48647799	          0.28033850	          0.22159143	          0.21308883	          0.19467514	          0.10032441	          0.00999999	          0.72130674	          0.00999999	          0.31790532	          0.39410513	
          1.21063319	         -9.94949959	          2.35318823	         -3.44233368	          2.43330677	          0.91010764	         -0.00575959	         -5.51828905	         -3.54968040	         -6.60889474	        -39.68225076	        -23.64316005	         29.70073904	         34.86863808	          4.18912662	         -0.77288654	        -37.28589028	         14.99973279	          5.76402460	         -5.27969796	         -4.44493312	         13.24145997	          0.35329062	          0.12066255	          0.00999999	          0.00999999	          0.19358847	          0.02044011	          0.16548850	          0.01076848	          0.42736567	          0.01533178	          0.00999999	          0.07918894	          0.04448953	          0.25333339	          0.12469251	          0.01009129	          0.00999999	          0.50013036	          0.24841311	          0.19635625	          0.18882194	          0.17250523	          0.08889931	          0.00999999	          0.79097883	          0.00999999	          0.36689152	          0.34922382	
          1.21834423	         -9.88351750	          2.46504540	         -3.13669589	          2.44917212	          0.90836710	         -0.00655488	         -3.89319132	         -3.95873134	         -6.87357657	        -43.43789280	        -22.93654426	         26.88262199	         34.09662287	          4.56935569	         -0.58675528	        -38.08651922	         16.30946956	          7.05026603	         -5.25631134	         -4.65007198	         12.83831369	          0.34421452	          0.13278579	          0.00999999	          0.00999999	          0.17154231	          0.01811236	          0.20763712	          0.00999999	          0.37869660	          0.01358578	          0.00999999	          0.07017078	          0.03942299	          0.27379426	          0.11618690	          0.00999999	          0.00999999	          0.49432953	          0.22012344	          0.17399489	          0.16731860	          0.15286006	          0.07877531	          0.00999999	          0.80180477	          0.00999999	          0.41054870	          0.30945366	
          1.22605527	         -9.83064857	          2.57100539	         -2.81305916	          2.46469582	          0.90740511	         -0.00729589	         -2.18950730	         -4.33965058	         -7.09114574	        -46.99935985	        -22.09048810	         24.34646781	         33.19503771	          4.93689105	         -0.37352378	        -38.55925902	         17.36777626	          8.31299884	         -5.27128385	         -4.84077749	         12.37584928	          0.33127437	          0.14441692	          0.00999999	          0.00999999	          0.15200680	          0.01604970	          0.23940581	          0.00999999	          0.33557004	          0.01203861	          0.00999999	          0.06217962	          0.03493344	          0.26870765	          0.10843288	          0.00999999	          0.00999999	          0.47455084	          0.19505544	          0.15418008	          0.14826409	          0.13545212	          0.06980426	          0.00999999	          0.76589869	          0.00999999	          0.44836953	          0.27421259	
          1.23376631	         -9.79090507	          2.66432871	         -2.47388435	          2.47990795	          0.90717752	         -0.00798262	         -0.42175079	         -4.68695115	         -7.27401174	        -50.32660939	        -21.19695130	         22.04704099	         32.19806957	          5.28146478	         -0.13374108	        -38.76623704	         18.17232726	          9.54350010	         -5.32138172	         -5.00828055	         11.85847495	          0.30961538	          0.15072927	          0.00999999	          0.00999999	          0.13469603	          0.01422193	          0.27155948	          0.00999999	          0.29735479	          0.01066763	          0.00999999	          0.05509851	          0.03095517	          0.26209704	          0.10573320	          0.00999999	          0.00999999	          0.44629886	          0.17284222	          0.13662181	          0.13137955	          0.12002662	          0.06185484	          0.00999999	          0.68571020	          0.00999999	          0.47940649	          0.24298483	
